<svg viewBox="0 0 512 512" xmlns="http://www.w3.org/2000/svg"><path d="m437.019531 74.980469c-48.351562-48.351563-112.640625-74.980469-181.019531-74.980469s-132.667969 26.628906-181.019531 74.980469c-48.351563 48.351562-74.980469 112.640625-74.980469 181.019531s26.628906 132.667969 74.980469 181.019531c48.351562 48.351563 112.640625 74.980469 181.019531 74.980469s132.667969-26.628906 181.019531-74.980469c48.351563-48.351562 74.980469-112.640625 74.980469-181.019531s-26.628906-132.667969-74.980469-181.019531zm-21.214843 340.824219c-42.683594 42.6875-99.4375 66.195312-159.804688 66.195312s-117.121094-23.507812-159.804688-66.195312c-42.6875-42.683594-66.195312-99.4375-66.195312-159.804688s23.507812-117.121094 66.195312-159.804688c42.683594-42.6875 99.4375-66.195312 159.804688-66.195312s117.121094 23.507812 159.804688 66.195312c42.6875 42.683594 66.195312 99.4375 66.195312 159.804688s-23.507812 117.121094-66.195312 159.804688zm0 0"/><path d="m256 60c-108.074219 0-196 87.925781-196 196s87.925781 196 196 196 196-87.925781 196-196-87.925781-196-196-196zm166 196c0 17.199219-2.632812 33.796875-7.507812 49.414062l-56.730469-23.5c2.113281-8.292968 3.238281-16.972656 3.238281-25.914062s-1.125-17.621094-3.238281-25.914062l56.730469-23.5c4.875 15.617187 7.507812 32.214843 7.507812 49.414062zm-19.035156-77.109375-56.722656 23.492187c-8.96875-15.039062-21.585938-27.65625-36.625-36.625l23.492187-56.722656c29.75 15.671875 54.183594 40.105469 69.855469 69.855469zm-146.964844 152.109375c-41.355469 0-75-33.644531-75-75s33.644531-75 75-75 75 33.644531 75 75-33.644531 75-75 75zm49.414062-233.492188-23.5 56.730469c-8.292968-2.113281-16.972656-3.238281-25.914062-3.238281s-17.621094 1.125-25.914062 3.238281l-23.5-56.730469c15.617187-4.875 32.214843-7.507812 49.414062-7.507812s33.796875 2.632812 49.414062 7.507812zm-126.523437 11.527344 23.492187 56.722656c-15.039062 8.96875-27.65625 21.585938-36.625 36.625l-56.722656-23.492187c15.671875-29.75 40.105469-54.183594 69.855469-69.855469zm-88.890625 146.964844c0-17.199219 2.632812-33.796875 7.507812-49.414062l56.730469 23.5c-2.113281 8.292968-3.238281 16.972656-3.238281 25.914062s1.125 17.621094 3.238281 25.914062l-56.730469 23.5c-4.875-15.617187-7.507812-32.214843-7.507812-49.414062zm19.035156 77.109375 56.722656-23.492187c8.96875 15.039062 21.585938 27.65625 36.625 36.625l-23.492187 56.722656c-29.75-15.671875-54.183594-40.105469-69.855469-69.855469zm97.550782 81.382813 23.5-56.730469c8.292968 2.113281 16.972656 3.238281 25.914062 3.238281s17.621094-1.125 25.914062-3.238281l23.5 56.730469c-15.617187 4.875-32.214843 7.507812-49.414062 7.507812s-33.796875-2.632812-49.414062-7.507812zm126.523437-11.527344-23.492187-56.722656c15.039062-8.96875 27.65625-21.585938 36.625-36.625l56.722656 23.492187c-15.671875 29.75-40.105469 54.183594-69.855469 69.855469zm0 0"/><path d="m256 211c-24.8125 0-45 20.1875-45 45s20.1875 45 45 45 45-20.1875 45-45-20.1875-45-45-45zm0 60c-8.269531 0-15-6.730469-15-15s6.730469-15 15-15 15 6.730469 15 15-6.730469 15-15 15zm0 0"/></svg>